{
	"asset":{
		"generator":"Khronos glTF Blender I/O v4.0.44",
		"version":"2.0"
	},
	"extensionsUsed":[
		"KHR_materials_specular",
		"KHR_materials_ior",
		"EXT_texture_webp"
	],
	"extensionsRequired":[
		"EXT_texture_webp"
	],
	"scene":0,
	"scenes":[
		{
			"name":"Scene",
			"nodes":[
				0,
				1,
				2,
				3,
				4,
				5,
				6,
				7,
				8,
				9,
				10,
				11
			]
		}
	],
	"nodes":[
		{
			"name":"\u00d7\u00fe\u00d7\u00fc",
			"scale":[
				0.009999999776482582,
				0.009999999776482582,
				0.009999999776482582
			]
		},
		{
			"name":"\u00a1\u00a1\u00d7\u00fd\u00d7\u00fb",
			"scale":[
				0.009999999776482582,
				0.009999999776482582,
				0.009999999776482582
			]
		},
		{
			"mesh":0,
			"name":"white_wall",
			"rotation":[
				-0.4999999403953552,
				-0.5000000596046448,
				-0.5000000596046448,
				0.4999999403953552
			],
			"scale":[
				0.009999999776482582,
				0.009999999776482582,
				0.009999999776482582
			],
			"translation":[
				18.68466567993164,
				11.050000190734863,
				4.239288806915283
			]
		},
		{
			"mesh":1,
			"name":"chess_wall",
			"scale":[
				0.009999999776482582,
				0.009999999776482582,
				0.009999999776482582
			],
			"translation":[
				-98.88459777832031,
				1.200209140777588,
				39.0068359375
			]
		},
		{
			"mesh":2,
			"name":"water",
			"scale":[
				0.009999999776482582,
				0.009999999776482582,
				0.009999999776482582
			],
			"translation":[
				-151.2641143798828,
				-1.3771514892578125,
				397.2502746582031
			]
		},
		{
			"mesh":3,
			"name":"glass",
			"rotation":[
				0,
				0.7071068286895752,
				0.7071068286895752,
				5.338507946817117e-08
			],
			"scale":[
				-0.009999999776482582,
				-0.009999999776482582,
				-0.009999999776482582
			],
			"translation":[
				-17.770587921142578,
				2.0999999046325684,
				-0.14501953125
			]
		},
		{
			"mesh":4,
			"name":"metall",
			"rotation":[
				0,
				0.9809127449989319,
				0,
				0.19444842636585236
			],
			"scale":[
				0.009999999776482582,
				0.009999999776482582,
				0.009999999776482582
			],
			"translation":[
				14.163614273071289,
				-0.7823837995529175,
				5.845012664794922
			]
		},
		{
			"mesh":5,
			"name":"ground_stiff",
			"scale":[
				0.009999999776482582,
				0.009999999776482582,
				0.009999999776482582
			],
			"translation":[
				19.31801414489746,
				-0.14999999105930328,
				10.061031341552734
			]
		},
		{
			"mesh":6,
			"name":"trees",
			"scale":[
				0.009999999776482582,
				0.009999999776482582,
				0.009999999776482582
			],
			"translation":[
				-16.969120025634766,
				0,
				19.9427433013916
			]
		},
		{
			"mesh":7,
			"name":"roof",
			"scale":[
				0.009999999776482582,
				0.009999999776482582,
				0.009999999776482582
			],
			"translation":[
				2.441406195430318e-06,
				1.5203466415405273,
				-3.662109293145477e-06
			]
		},
		{
			"mesh":8,
			"name":"floor",
			"scale":[
				0.009999999776482582,
				0.009999999776482582,
				0.009999999776482582
			]
		},
		{
			"mesh":9,
			"name":"ground",
			"scale":[
				0.009999999776482582,
				0.009999999776482582,
				0.009999999776482582
			],
			"translation":[
				19.31801414489746,
				-0.14999999105930328,
				10.061031341552734
			]
		}
	],
	"materials":[
		{
			"doubleSided":true,
			"extensions":{
				"KHR_materials_specular":{
					"specularFactor":0
				},
				"KHR_materials_ior":{
					"ior":1.4500000476837158
				}
			},
			"name":"white_wall.001",
			"pbrMetallicRoughness":{
				"baseColorTexture":{
					"index":0
				},
				"roughnessFactor":0.858578622341156
			}
		},
		{
			"doubleSided":true,
			"extensions":{
				"KHR_materials_specular":{
					"specularFactor":0
				},
				"KHR_materials_ior":{
					"ior":1.4500000476837158
				}
			},
			"name":"chess_wall.001",
			"pbrMetallicRoughness":{
				"baseColorTexture":{
					"index":1
				},
				"roughnessFactor":0.858578622341156
			}
		},
		{
			"doubleSided":true,
			"extensions":{
				"KHR_materials_specular":{
					"specularFactor":0
				},
				"KHR_materials_ior":{
					"ior":1.4500000476837158
				}
			},
			"name":"water.001",
			"pbrMetallicRoughness":{
				"baseColorFactor":[
					0.06666667014360428,
					0.11764706671237946,
					0.18431372940540314,
					0.4700000286102295
				],
				"roughnessFactor":0.858578622341156
			}
		},
		{
			"doubleSided":true,
			"extensions":{
				"KHR_materials_specular":{
					"specularColorFactor":[
						2.0,
						2.0,
						2.0
					]
				},
				"KHR_materials_ior":{
					"ior":1.4500000476837158
				}
			},
			"name":"glass.001",
			"pbrMetallicRoughness":{
				"baseColorFactor":[
					0,
					0,
					0,
					0.8500000238418579
				],
				"metallicFactor":0,
				"roughnessFactor":0
			}
		},
		{
			"doubleSided":true,
			"extensions":{
				"KHR_materials_specular":{
					"specularFactor":0
				},
				"KHR_materials_ior":{
					"ior":1.4500000476837158
				}
			},
			"name":"metals.001",
			"pbrMetallicRoughness":{
				"baseColorTexture":{
					"index":2
				},
				"roughnessFactor":0.858578622341156
			}
		},
		{
			"doubleSided":true,
			"extensions":{
				"KHR_materials_specular":{
					"specularFactor":0
				},
				"KHR_materials_ior":{
					"ior":1.4500000476837158
				}
			},
			"name":"shadow.001",
			"pbrMetallicRoughness":{
				"baseColorTexture":{
					"index":3
				},
				"roughnessFactor":0.858578622341156
			}
		},
		{
			"alphaMode":"BLEND",
			"doubleSided":true,
			"extensions":{
				"KHR_materials_specular":{
					"specularFactor":0
				},
				"KHR_materials_ior":{
					"ior":1.4500000476837158
				}
			},
			"name":"trees.001",
			"pbrMetallicRoughness":{
				"baseColorTexture":{
					"index":4
				},
				"roughnessFactor":0.858578622341156
			}
		},
		{
			"doubleSided":true,
			"extensions":{
				"KHR_materials_specular":{
					"specularFactor":0
				},
				"KHR_materials_ior":{
					"ior":1.4500000476837158
				}
			},
			"name":"roof.001",
			"pbrMetallicRoughness":{
				"baseColorTexture":{
					"index":5
				},
				"roughnessFactor":0.858578622341156
			}
		},
		{
			"doubleSided":true,
			"extensions":{
				"KHR_materials_specular":{
					"specularFactor":0
				},
				"KHR_materials_ior":{
					"ior":1.4500000476837158
				}
			},
			"name":"floor.001",
			"pbrMetallicRoughness":{
				"baseColorTexture":{
					"index":6
				},
				"roughnessFactor":0.858578622341156
			}
		},
		{
			"doubleSided":true,
			"extensions":{
				"KHR_materials_specular":{
					"specularFactor":0
				},
				"KHR_materials_ior":{
					"ior":1.4500000476837158
				}
			},
			"name":"ground.001",
			"pbrMetallicRoughness":{
				"baseColorTexture":{
					"index":7
				},
				"roughnessFactor":0.858578622341156
			}
		}
	],
	"meshes":[
		{
			"name":"Mesh.010",
			"primitives":[
				{
					"attributes":{
						"COLOR_0":0,
						"POSITION":1,
						"NORMAL":2,
						"TEXCOORD_0":3,
						"TEXCOORD_1":4
					},
					"indices":5,
					"material":0
				}
			]
		},
		{
			"name":"Mesh.011",
			"primitives":[
				{
					"attributes":{
						"COLOR_0":6,
						"POSITION":7,
						"NORMAL":8,
						"TEXCOORD_0":9,
						"TEXCOORD_1":10
					},
					"indices":11,
					"material":1
				}
			]
		},
		{
			"name":"Mesh.012",
			"primitives":[
				{
					"attributes":{
						"POSITION":12,
						"NORMAL":13
					},
					"indices":14,
					"material":2
				}
			]
		},
		{
			"name":"Mesh.013",
			"primitives":[
				{
					"attributes":{
						"POSITION":15,
						"NORMAL":16,
						"TEXCOORD_0":17
					},
					"indices":18,
					"material":3
				}
			]
		},
		{
			"name":"Mesh.014",
			"primitives":[
				{
					"attributes":{
						"POSITION":19,
						"NORMAL":20,
						"TEXCOORD_0":21,
						"TEXCOORD_1":22
					},
					"indices":23,
					"material":4
				}
			]
		},
		{
			"name":"Mesh.015",
			"primitives":[
				{
					"attributes":{
						"COLOR_0":24,
						"POSITION":25,
						"NORMAL":26,
						"TEXCOORD_0":27,
						"TEXCOORD_1":28
					},
					"indices":29,
					"material":5
				}
			]
		},
		{
			"name":"Mesh.016",
			"primitives":[
				{
					"attributes":{
						"POSITION":30,
						"NORMAL":31,
						"TEXCOORD_0":32,
						"TEXCOORD_1":33
					},
					"indices":34,
					"material":6
				}
			]
		},
		{
			"name":"Mesh.017",
			"primitives":[
				{
					"attributes":{
						"POSITION":35,
						"NORMAL":36,
						"TEXCOORD_0":37,
						"TEXCOORD_1":38
					},
					"indices":39,
					"material":7
				}
			]
		},
		{
			"name":"Mesh.018",
			"primitives":[
				{
					"attributes":{
						"POSITION":40,
						"NORMAL":41,
						"TEXCOORD_0":42,
						"TEXCOORD_1":43
					},
					"indices":44,
					"material":8
				}
			]
		},
		{
			"name":"Mesh.019",
			"primitives":[
				{
					"attributes":{
						"COLOR_0":45,
						"POSITION":46,
						"NORMAL":47,
						"TEXCOORD_0":48,
						"TEXCOORD_1":49
					},
					"indices":50,
					"material":9
				}
			]
		}
	],
	"textures":[
		{
			"extensions":{
				"EXT_texture_webp":{
					"source":0
				}
			},
			"sampler":0
		},
		{
			"extensions":{
				"EXT_texture_webp":{
					"source":1
				}
			},
			"sampler":0
		},
		{
			"extensions":{
				"EXT_texture_webp":{
					"source":2
				}
			},
			"sampler":0
		},
		{
			"extensions":{
				"EXT_texture_webp":{
					"source":3
				}
			},
			"sampler":0
		},
		{
			"extensions":{
				"EXT_texture_webp":{
					"source":4
				}
			},
			"sampler":0
		},
		{
			"extensions":{
				"EXT_texture_webp":{
					"source":5
				}
			},
			"sampler":0
		},
		{
			"extensions":{
				"EXT_texture_webp":{
					"source":6
				}
			},
			"sampler":0
		},
		{
			"extensions":{
				"EXT_texture_webp":{
					"source":7
				}
			},
			"sampler":0
		}
	],
	"images":[
		{
			"mimeType":"image/webp",
			"name":"white_wall",
			"uri":"textures/white_wall.webp"
		},
		{
			"mimeType":"image/webp",
			"name":"chess_walll",
			"uri":"textures/chess_walll.webp"
		},
		{
			"mimeType":"image/webp",
			"name":"metals",
			"uri":"textures/metals.webp"
		},
		{
			"mimeType":"image/webp",
			"name":"ground_shadow",
			"uri":"textures/ground_shadow.webp"
		},
		{
			"mimeType":"image/webp",
			"name":"Map #3-Map #4",
			"uri":"textures/Map%203-Map%204.webp"
		},
		{
			"mimeType":"image/webp",
			"name":"roof",
			"uri":"textures/roof.webp"
		},
		{
			"mimeType":"image/webp",
			"name":"floor",
			"uri":"textures/floor.webp"
		},
		{
			"mimeType":"image/webp",
			"name":"ground",
			"uri":"textures/ground.webp"
		}
	],
	"accessors":[
		{
			"bufferView":0,
			"componentType":5123,
			"count":25990,
			"normalized":true,
			"type":"VEC4"
		},
		{
			"bufferView":1,
			"componentType":5126,
			"count":25990,
			"max":[
				2972.3955078125,
				3303.42236328125,
				199.413330078125
			],
			"min":[
				-2009.6568603515625,
				-4702.189453125,
				-1224.9996337890625
			],
			"type":"VEC3"
		},
		{
			"bufferView":2,
			"componentType":5126,
			"count":25990,
			"type":"VEC3"
		},
		{
			"bufferView":3,
			"componentType":5126,
			"count":25990,
			"type":"VEC2"
		},
		{
			"bufferView":4,
			"componentType":5126,
			"count":25990,
			"type":"VEC2"
		},
		{
			"bufferView":5,
			"componentType":5123,
			"count":48354,
			"type":"SCALAR"
		},
		{
			"bufferView":6,
			"componentType":5123,
			"count":7214,
			"normalized":true,
			"type":"VEC4"
		},
		{
			"bufferView":7,
			"componentType":5126,
			"count":7214,
			"max":[
				14929.138671875,
				1177.5831298828125,
				-786.452880859375
			],
			"min":[
				7106.3837890625,
				-135.021240234375,
				-5477.14013671875
			],
			"type":"VEC3"
		},
		{
			"bufferView":8,
			"componentType":5126,
			"count":7214,
			"type":"VEC3"
		},
		{
			"bufferView":9,
			"componentType":5126,
			"count":7214,
			"type":"VEC2"
		},
		{
			"bufferView":10,
			"componentType":5126,
			"count":7214,
			"type":"VEC2"
		},
		{
			"bufferView":11,
			"componentType":5123,
			"count":13374,
			"type":"SCALAR"
		},
		{
			"bufferView":12,
			"componentType":5126,
			"count":26,
			"max":[
				19154.787109375,
				120.564453125,
				-40019.1796875
			],
			"min":[
				17626.80859375,
				120.564453125,
				-40584.51953125
			],
			"type":"VEC3"
		},
		{
			"bufferView":13,
			"componentType":5126,
			"count":26,
			"type":"VEC3"
		},
		{
			"bufferView":14,
			"componentType":5123,
			"count":72,
			"type":"SCALAR"
		},
		{
			"bufferView":15,
			"componentType":5126,
			"count":1764,
			"max":[
				6719.9521484375,
				970.2236938476562,
				210.49957275390625
			],
			"min":[
				-952.400146484375,
				-3071.515869140625,
				-809.0021362304688
			],
			"type":"VEC3"
		},
		{
			"bufferView":16,
			"componentType":5126,
			"count":1764,
			"type":"VEC3"
		},
		{
			"bufferView":17,
			"componentType":5126,
			"count":1764,
			"type":"VEC2"
		},
		{
			"bufferView":18,
			"componentType":5123,
			"count":3486,
			"type":"SCALAR"
		},
		{
			"bufferView":19,
			"componentType":5126,
			"count":12641,
			"max":[
				4072.763916015625,
				1444.6055908203125,
				2409.62060546875
			],
			"min":[
				-3599.05712890625,
				63.238372802734375,
				-2837.173583984375
			],
			"type":"VEC3"
		},
		{
			"bufferView":20,
			"componentType":5126,
			"count":12641,
			"type":"VEC3"
		},
		{
			"bufferView":21,
			"componentType":5126,
			"count":12641,
			"type":"VEC2"
		},
		{
			"bufferView":22,
			"componentType":5126,
			"count":12641,
			"type":"VEC2"
		},
		{
			"bufferView":23,
			"componentType":5123,
			"count":22701,
			"type":"SCALAR"
		},
		{
			"bufferView":24,
			"componentType":5123,
			"count":1302,
			"normalized":true,
			"type":"VEC4"
		},
		{
			"bufferView":25,
			"componentType":5126,
			"count":1302,
			"max":[
				-674.9661865234375,
				71.50466918945312,
				2740.193359375
			],
			"min":[
				-4697.8095703125,
				-0.9999961853027344,
				-1274.2236328125
			],
			"type":"VEC3"
		},
		{
			"bufferView":26,
			"componentType":5126,
			"count":1302,
			"type":"VEC3"
		},
		{
			"bufferView":27,
			"componentType":5126,
			"count":1302,
			"type":"VEC2"
		},
		{
			"bufferView":28,
			"componentType":5126,
			"count":1302,
			"type":"VEC2"
		},
		{
			"bufferView":29,
			"componentType":5123,
			"count":2802,
			"type":"SCALAR"
		},
		{
			"bufferView":30,
			"componentType":5126,
			"count":19396,
			"max":[
				310.9349060058594,
				1276.285888671875,
				330.3209228515625
			],
			"min":[
				-785.5780029296875,
				-15.000001907348633,
				-898.5301513671875
			],
			"type":"VEC3"
		},
		{
			"bufferView":31,
			"componentType":5126,
			"count":19396,
			"type":"VEC3"
		},
		{
			"bufferView":32,
			"componentType":5126,
			"count":19396,
			"type":"VEC2"
		},
		{
			"bufferView":33,
			"componentType":5126,
			"count":19396,
			"type":"VEC2"
		},
		{
			"bufferView":34,
			"componentType":5123,
			"count":34800,
			"type":"SCALAR"
		},
		{
			"bufferView":35,
			"componentType":5126,
			"count":20486,
			"max":[
				5223.5322265625,
				953.2372436523438,
				3547.32470703125
			],
			"min":[
				-2830.10888671875,
				96.23503112792969,
				-962.6875
			],
			"type":"VEC3"
		},
		{
			"bufferView":36,
			"componentType":5126,
			"count":20486,
			"type":"VEC3"
		},
		{
			"bufferView":37,
			"componentType":5126,
			"count":20486,
			"type":"VEC2"
		},
		{
			"bufferView":38,
			"componentType":5126,
			"count":20486,
			"type":"VEC2"
		},
		{
			"bufferView":39,
			"componentType":5123,
			"count":31662,
			"type":"SCALAR"
		},
		{
			"bufferView":40,
			"componentType":5126,
			"count":1142,
			"max":[
				4954.43505859375,
				450.0002136230469,
				3080.00244140625
			],
			"min":[
				-2719.99462890625,
				-0.00048828125,
				-1067.29638671875
			],
			"type":"VEC3"
		},
		{
			"bufferView":41,
			"componentType":5126,
			"count":1142,
			"type":"VEC3"
		},
		{
			"bufferView":42,
			"componentType":5126,
			"count":1142,
			"type":"VEC2"
		},
		{
			"bufferView":43,
			"componentType":5126,
			"count":1142,
			"type":"VEC2"
		},
		{
			"bufferView":44,
			"componentType":5123,
			"count":2277,
			"type":"SCALAR"
		},
		{
			"bufferView":45,
			"componentType":5123,
			"count":16,
			"normalized":true,
			"type":"VEC4"
		},
		{
			"bufferView":46,
			"componentType":5126,
			"count":16,
			"max":[
				5189.150390625,
				0,
				3487.109375
			],
			"min":[
				-5189.150390625,
				0,
				-3487.109375
			],
			"type":"VEC3"
		},
		{
			"bufferView":47,
			"componentType":5126,
			"count":16,
			"type":"VEC3"
		},
		{
			"bufferView":48,
			"componentType":5126,
			"count":16,
			"type":"VEC2"
		},
		{
			"bufferView":49,
			"componentType":5126,
			"count":16,
			"type":"VEC2"
		},
		{
			"bufferView":50,
			"componentType":5123,
			"count":48,
			"type":"SCALAR"
		}
	],
	"bufferViews":[
		{
			"buffer":0,
			"byteLength":207920,
			"byteOffset":0,
			"target":34962
		},
		{
			"buffer":0,
			"byteLength":311880,
			"byteOffset":207920,
			"target":34962
		},
		{
			"buffer":0,
			"byteLength":311880,
			"byteOffset":519800,
			"target":34962
		},
		{
			"buffer":0,
			"byteLength":207920,
			"byteOffset":831680,
			"target":34962
		},
		{
			"buffer":0,
			"byteLength":207920,
			"byteOffset":1039600,
			"target":34962
		},
		{
			"buffer":0,
			"byteLength":96708,
			"byteOffset":1247520,
			"target":34963
		},
		{
			"buffer":0,
			"byteLength":57712,
			"byteOffset":1344228,
			"target":34962
		},
		{
			"buffer":0,
			"byteLength":86568,
			"byteOffset":1401940,
			"target":34962
		},
		{
			"buffer":0,
			"byteLength":86568,
			"byteOffset":1488508,
			"target":34962
		},
		{
			"buffer":0,
			"byteLength":57712,
			"byteOffset":1575076,
			"target":34962
		},
		{
			"buffer":0,
			"byteLength":57712,
			"byteOffset":1632788,
			"target":34962
		},
		{
			"buffer":0,
			"byteLength":26748,
			"byteOffset":1690500,
			"target":34963
		},
		{
			"buffer":0,
			"byteLength":312,
			"byteOffset":1717248,
			"target":34962
		},
		{
			"buffer":0,
			"byteLength":312,
			"byteOffset":1717560,
			"target":34962
		},
		{
			"buffer":0,
			"byteLength":144,
			"byteOffset":1717872,
			"target":34963
		},
		{
			"buffer":0,
			"byteLength":21168,
			"byteOffset":1718016,
			"target":34962
		},
		{
			"buffer":0,
			"byteLength":21168,
			"byteOffset":1739184,
			"target":34962
		},
		{
			"buffer":0,
			"byteLength":14112,
			"byteOffset":1760352,
			"target":34962
		},
		{
			"buffer":0,
			"byteLength":6972,
			"byteOffset":1774464,
			"target":34963
		},
		{
			"buffer":0,
			"byteLength":151692,
			"byteOffset":1781436,
			"target":34962
		},
		{
			"buffer":0,
			"byteLength":151692,
			"byteOffset":1933128,
			"target":34962
		},
		{
			"buffer":0,
			"byteLength":101128,
			"byteOffset":2084820,
			"target":34962
		},
		{
			"buffer":0,
			"byteLength":101128,
			"byteOffset":2185948,
			"target":34962
		},
		{
			"buffer":0,
			"byteLength":45402,
			"byteOffset":2287076,
			"target":34963
		},
		{
			"buffer":0,
			"byteLength":10416,
			"byteOffset":2332480,
			"target":34962
		},
		{
			"buffer":0,
			"byteLength":15624,
			"byteOffset":2342896,
			"target":34962
		},
		{
			"buffer":0,
			"byteLength":15624,
			"byteOffset":2358520,
			"target":34962
		},
		{
			"buffer":0,
			"byteLength":10416,
			"byteOffset":2374144,
			"target":34962
		},
		{
			"buffer":0,
			"byteLength":10416,
			"byteOffset":2384560,
			"target":34962
		},
		{
			"buffer":0,
			"byteLength":5604,
			"byteOffset":2394976,
			"target":34963
		},
		{
			"buffer":0,
			"byteLength":232752,
			"byteOffset":2400580,
			"target":34962
		},
		{
			"buffer":0,
			"byteLength":232752,
			"byteOffset":2633332,
			"target":34962
		},
		{
			"buffer":0,
			"byteLength":155168,
			"byteOffset":2866084,
			"target":34962
		},
		{
			"buffer":0,
			"byteLength":155168,
			"byteOffset":3021252,
			"target":34962
		},
		{
			"buffer":0,
			"byteLength":69600,
			"byteOffset":3176420,
			"target":34963
		},
		{
			"buffer":0,
			"byteLength":245832,
			"byteOffset":3246020,
			"target":34962
		},
		{
			"buffer":0,
			"byteLength":245832,
			"byteOffset":3491852,
			"target":34962
		},
		{
			"buffer":0,
			"byteLength":163888,
			"byteOffset":3737684,
			"target":34962
		},
		{
			"buffer":0,
			"byteLength":163888,
			"byteOffset":3901572,
			"target":34962
		},
		{
			"buffer":0,
			"byteLength":63324,
			"byteOffset":4065460,
			"target":34963
		},
		{
			"buffer":0,
			"byteLength":13704,
			"byteOffset":4128784,
			"target":34962
		},
		{
			"buffer":0,
			"byteLength":13704,
			"byteOffset":4142488,
			"target":34962
		},
		{
			"buffer":0,
			"byteLength":9136,
			"byteOffset":4156192,
			"target":34962
		},
		{
			"buffer":0,
			"byteLength":9136,
			"byteOffset":4165328,
			"target":34962
		},
		{
			"buffer":0,
			"byteLength":4554,
			"byteOffset":4174464,
			"target":34963
		},
		{
			"buffer":0,
			"byteLength":128,
			"byteOffset":4179020,
			"target":34962
		},
		{
			"buffer":0,
			"byteLength":192,
			"byteOffset":4179148,
			"target":34962
		},
		{
			"buffer":0,
			"byteLength":192,
			"byteOffset":4179340,
			"target":34962
		},
		{
			"buffer":0,
			"byteLength":128,
			"byteOffset":4179532,
			"target":34962
		},
		{
			"buffer":0,
			"byteLength":128,
			"byteOffset":4179660,
			"target":34962
		},
		{
			"buffer":0,
			"byteLength":96,
			"byteOffset":4179788,
			"target":34963
		}
	],
	"samplers":[
		{
			"magFilter":9729,
			"minFilter":9987
		}
	],
	"buffers":[
		{
			"byteLength":4179884,
			"uri":"pushkin.bin"
		}
	]
}
